<?xml version="1.0" standalone="no"?>
<!DOCTYPE svg PUBLIC "-//W3C//DTD SVG 20010904//EN"
 "http://www.w3.org/TR/2001/REC-SVG-20010904/DTD/svg10.dtd">
<svg version="1.0" xmlns="http://www.w3.org/2000/svg"
 width="200.000000pt" height="200.000000pt" viewBox="0 0 200.000000 200.000000"
 preserveAspectRatio="xMidYMid meet">
<metadata>
Created by potrace 1.16, written by Peter Selinger 2001-2019
</metadata>
<g transform="translate(0.000000,200.000000) scale(0.100000,-0.100000)"
fill="#000000" stroke="none">
<path d="M908 1844 c-34 -18 -58 -62 -58 -106 0 -44 34 -97 70 -111 29 -11 30
-14 30 -72 l0 -60 -66 -16 -66 -16 -36 49 c-21 30 -41 48 -51 46 -26 -5 -24
-35 3 -71 14 -19 26 -38 26 -43 0 -5 -20 -21 -43 -36 -24 -15 -52 -37 -62 -48
-17 -19 -18 -19 -60 16 l-43 35 5 58 c3 35 1 66 -6 80 -18 32 -70 61 -111 61
-120 -1 -165 -159 -64 -225 20 -13 40 -16 83 -12 55 5 57 4 98 -35 l41 -40
-30 -49 c-16 -27 -32 -49 -34 -49 -3 0 -21 7 -41 15 -43 18 -63 14 -63 -13 0
-14 14 -24 46 -37 38 -14 45 -21 40 -39 -3 -11 -8 -40 -12 -63 l-7 -43 -49 0
c-42 0 -50 3 -58 24 -22 59 -104 89 -164 61 -89 -42 -89 -178 0 -220 60 -28
142 2 164 61 8 21 16 24 58 24 l48 0 15 -74 15 -74 -48 -20 c-36 -15 -48 -26
-48 -41 0 -26 28 -28 71 -5 17 8 34 14 39 12 4 -2 29 -32 55 -67 l46 -63 -39
-47 c-39 -45 -41 -46 -90 -43 -89 6 -142 -41 -142 -129 0 -33 6 -47 34 -75 30
-30 40 -34 85 -34 69 0 111 36 118 101 3 26 1 55 -5 65 -11 21 -9 26 47 89 28
32 36 36 50 27 9 -7 34 -21 56 -33 22 -12 42 -23 44 -25 2 -2 -9 -24 -24 -49
-21 -37 -24 -49 -15 -61 19 -22 28 -17 62 37 28 47 33 50 61 45 16 -3 38 -6
48 -6 16 0 19 -8 19 -60 0 -57 -1 -60 -34 -75 -74 -35 -88 -142 -26 -197 25
-23 40 -28 81 -28 45 0 55 4 85 34 28 28 34 42 34 75 0 54 -22 97 -60 116 -28
14 -30 20 -30 70 l0 54 48 6 c26 4 63 11 82 16 50 13 48 14 75 -46 25 -57 35
-65 54 -41 9 11 7 26 -9 66 -11 29 -19 54 -18 55 2 2 26 19 54 38 l52 36 28
-30 c25 -27 29 -37 26 -79 -9 -125 122 -186 206 -95 83 90 -5 229 -124 196
-34 -9 -40 -8 -68 17 l-31 27 41 61 40 60 40 -17 c57 -26 86 -24 82 3 -2 16
-17 28 -53 42 l-50 21 12 45 c6 25 12 57 12 73 1 26 4 27 49 27 43 0 49 -3 59
-29 14 -39 58 -66 108 -66 109 0 163 129 86 206 -57 57 -158 42 -191 -28 -14
-30 -19 -33 -62 -33 -43 0 -48 2 -48 23 0 22 -21 106 -35 139 -5 12 6 23 44
45 32 17 51 35 51 46 0 30 -26 30 -76 1 l-47 -28 -16 25 c-9 13 -33 43 -54 65
l-38 42 27 32 c24 27 32 31 60 25 71 -13 144 46 144 117 0 54 -22 92 -66 113
-53 25 -101 15 -143 -31 -30 -33 -33 -41 -28 -83 2 -25 8 -53 11 -62 5 -10 -3
-28 -19 -47 l-26 -31 -54 26 c-50 24 -54 29 -48 52 4 14 7 40 8 56 0 23 -4 30
-20 30 -14 0 -22 -11 -30 -45 -11 -43 -13 -45 -46 -42 -100 7 -99 7 -99 72 0
49 3 60 20 65 10 3 31 20 45 36 30 36 34 106 9 145 -34 51 -110 69 -166 38z
m109 -56 c46 -43 16 -118 -47 -118 -35 0 -70 34 -70 67 0 30 42 73 71 73 13 0
33 -10 46 -22z m467 -179 c65 -51 1 -153 -73 -114 -48 24 -55 72 -16 110 30
30 54 31 89 4z m-994 -69 c11 -11 20 -33 20 -50 0 -65 -79 -94 -119 -44 -27
35 -26 59 4 89 29 30 68 32 95 5z m620 -111 c63 -15 150 -63 200 -112 243
-238 154 -634 -169 -749 -81 -29 -206 -28 -286 2 -267 102 -382 397 -248 642
37 67 130 153 206 188 96 46 185 54 297 29z m-777 -391 c53 -62 -31 -149 -96
-98 -20 16 -27 30 -27 55 0 67 79 95 123 43z m1415 16 c35 -24 46 -51 32 -84
-25 -60 -105 -59 -130 0 -14 33 -3 60 32 84 28 20 38 20 66 0z m-185 -516 c9
-11 17 -31 17 -45 0 -29 -42 -73 -70 -73 -27 0 -70 43 -70 70 0 70 77 100 123
48z m-1028 -63 c46 -45 19 -115 -45 -115 -65 0 -94 79 -44 119 35 27 59 26 89
-4z m479 -166 c50 -40 21 -119 -44 -119 -64 0 -91 70 -45 115 30 30 54 31 89
4z"/>
<path d="M910 1308 l-1 -73 -42 48 c-66 75 -105 59 -67 -27 11 -26 20 -52 20
-57 0 -5 -24 3 -54 18 -51 25 -86 26 -86 3 0 -6 20 -33 45 -59 l46 -49 -73 2
c-97 1 -103 -18 -16 -61 l63 -31 -65 -19 c-51 -15 -65 -23 -65 -39 0 -16 11
-21 68 -29 l68 -10 -50 -38 c-31 -23 -51 -45 -51 -57 0 -24 17 -25 84 -5 27 8
51 14 52 12 2 -1 -10 -24 -27 -50 -52 -84 -28 -110 47 -53 26 20 49 34 51 32
3 -2 0 -30 -6 -61 -6 -32 -8 -61 -5 -66 13 -21 37 -5 71 49 l37 57 8 -45 c13
-80 18 -90 38 -90 20 0 25 10 38 90 l8 45 37 -57 c54 -84 85 -78 66 11 -6 28
-9 56 -7 62 2 6 25 -6 51 -26 76 -58 100 -32 48 52 -17 26 -29 49 -27 50 1 2
25 -4 52 -12 67 -20 84 -19 84 5 0 12 -20 34 -51 57 l-50 38 68 10 c57 8 68
13 68 29 0 16 -14 24 -64 39 l-65 19 60 31 c83 45 79 62 -14 61 l-73 -2 46 49
c25 26 45 53 45 59 0 23 -35 22 -86 -3 -30 -15 -54 -23 -54 -19 0 4 9 31 20
60 33 87 -1 100 -67 25 l-42 -48 -1 73 c0 70 -1 73 -22 70 -17 -2 -27 -16 -42
-55 -10 -29 -22 -53 -26 -53 -4 0 -16 24 -26 53 -15 39 -25 53 -42 55 -21 3
-22 0 -22 -70z m90 -148 c12 0 24 9 30 23 8 21 9 21 9 -6 1 -34 25 -45 50 -23
17 15 17 14 13 -15 -4 -31 -4 -31 27 -27 22 3 28 1 21 -6 -14 -14 -13 -46 3
-47 6 -1 23 -1 37 0 l25 2 -25 -13 c-34 -18 -38 -53 -8 -63 l23 -8 -23 -4
c-33 -7 -39 -32 -12 -53 l22 -17 -31 5 c-35 5 -52 -18 -31 -43 14 -17 -1 -20
-17 -4 -7 7 -19 9 -29 5 -13 -5 -15 -14 -10 -39 6 -31 6 -32 -9 -9 -20 28 -55
30 -55 2 0 -11 -4 -20 -10 -20 -5 0 -10 9 -10 20 0 28 -35 26 -55 -2 -15 -23
-15 -22 -9 9 5 25 3 34 -10 39 -10 4 -22 2 -29 -5 -16 -16 -31 -13 -17 4 21
25 4 48 -31 43 l-31 -5 22 17 c27 21 21 46 -12 53 l-23 4 23 8 c30 10 28 41
-5 60 l-28 15 25 -1 c14 -1 31 -1 38 0 15 1 16 33 2 47 -7 7 -1 9 21 6 31 -4
31 -4 27 27 -4 29 -4 30 13 15 25 -22 49 -11 50 23 0 27 1 27 9 6 6 -14 18
-23 30 -23z"/>
</g>
</svg>
